<?xml version="1.0" encoding="UTF-8" standalone="no"?>
<svg
   xmlns:dc="http://purl.org/dc/elements/1.1/"
   xmlns:cc="http://creativecommons.org/ns#"
   xmlns:rdf="http://www.w3.org/1999/02/22-rdf-syntax-ns#"
   xmlns:svg="http://www.w3.org/2000/svg"
   xmlns="http://www.w3.org/2000/svg"
   xmlns:sodipodi="http://sodipodi.sourceforge.net/DTD/sodipodi-0.dtd"
   xmlns:inkscape="http://www.inkscape.org/namespaces/inkscape"
   version="1.1"
   preserveAspectRatio="xMidYMid meet"
   viewBox="947 523 165 169"
   id="svg3418"
   inkscape:version="0.91 r13725"
   sodipodi:docname="cbl_logo.svg">
  <metadata
     id="metadata3460">
    <rdf:RDF>
      <cc:Work
         rdf:about="">
        <dc:format>image/svg+xml</dc:format>
        <dc:type
           rdf:resource="http://purl.org/dc/dcmitype/StillImage" />
      </cc:Work>
    </rdf:RDF>
  </metadata>
  <sodipodi:namedview
     pagecolor="#ffffff"
     bordercolor="#666666"
     borderopacity="1"
     objecttolerance="10"
     gridtolerance="10"
     guidetolerance="10"
     inkscape:pageopacity="0"
     inkscape:pageshadow="2"
     inkscape:window-width="1920"
     inkscape:window-height="1161"
     id="namedview3458"
     showgrid="false"
     inkscape:zoom="4.0376216"
     inkscape:cx="42.535688"
     inkscape:cy="95.417425"
     inkscape:window-x="1920"
     inkscape:window-y="0"
     inkscape:window-maximized="1"
     inkscape:current-layer="logo__item--business" />
  <defs
     id="defs3420">
    <style
       id="style3422">
                    @font-face {
                        font-family: &quot;Montserrat--bold--normal&quot;;
                        src: url(&quot;data:application/x-font-ttf;charset=utf-8;base64&quot;) format(&quot;truetype&quot;);
                    }
                    @font-face {
                        font-family: &quot;Open Sans--normal--normal&quot;;
                        src: url(&quot;data:application/x-font-ttf;charset=utf-8;base64&quot;)
                    }
                </style>
  </defs>
  <g
     data-item-type="text"
     data-item="Business"
     id="logo__item--business"
     class="logo__item"
     transform="translate(-3.962729,-12.383528)">
    <g
       class="logo__item__inner"
       transform="translate(949.27344,684.94356)"
       id="g3425">
      <text
         data-part-id="logo__item--business__0"
         dy="1.4012985e-45"
         dominant-baseline="text-after-edge"
         alignment-baseline="text-after-edge"
         font-size="32px"
         letter-spacing="0"
         font-weight="normal"
         font-style="normal"
         data-font-family="Montserrat"
         data-font-weight="bold"
         data-font-style="normal"
         data-ttf-url="/builder_assets/fontsttf/font-montserrat-bold-normal.ttf"
         id="text3427"
         style="font-style:normal;font-weight:normal;font-size:32px;line-height:0%;font-family:Montserrat--bold--normal;letter-spacing:0;fill:#464b51"
         sodipodi:linespacing="0%"
         x="1.9813645"
         y="-0.74301171">
        <tspan
           style="font-style:normal;font-variant:normal;font-weight:bold;font-stretch:normal;font-size:28.75px;line-height:0%;font-family:sans-serif;-inkscape-font-specification:'sans-serif Bold'"
           id="tspan3462">CBL @ RIT</tspan>
      </text>
    </g>
  </g>
  <g
     data-item-type="image"
     data-item="Image"
     data-logo-item=""
     id="logo__item--logo_0"
     class="logo__item">
    <g
       class="logo__item__inner"
       transform="translate(964.5597039909131 519.5) scale(0.8955222860851816 0.8955222860851816) rotate(0 0 0)"
       id="g3430">
      <g
         id="g3432">
        <path
           fill="#464B51"
           d="M57.5,122.9h1.6v2.8h-1.6v2.9h1.6v2.8h-1.5c0.2,3.6,3.7,6.5,8.1,6.8c0.8,1.8,2.6,3.1,4.8,3.1h11.9   c2.1,0,4-1.3,4.8-3.1c4.4-0.3,7.8-3.2,8.1-6.8h-1.3v-2.8h1.4v-2.9h-1.4v-2.8h1.4v-3H57.5V122.9z"
           data-part-id="logo__item--logo_0__0"
           id="path3434" />
        <g
           id="g3436">
          <path
             fill-rule="evenodd"
             clip-rule="evenodd"
             fill="#F89E37"
             d="M76.5,24.7c1.8,0,3.3-1.5,3.3-3.3V10.6c0-1.8-1.5-3.3-3.3-3.3    c-1.8,0-3.3,1.5-3.3,3.3v10.7C73.1,23.2,74.6,24.7,76.5,24.7z"
             data-part-id="logo__item--logo_0__1"
             id="path3438" />
          <path
             fill-rule="evenodd"
             clip-rule="evenodd"
             fill="#F89E37"
             d="M51.3,28.1c0.6,1.1,1.7,1.7,2.9,1.7c0.6,0,1.1-0.1,1.7-0.4    c1.6-0.9,2.1-3,1.2-4.6l-5.4-9.3c-0.9-1.6-3-2.1-4.6-1.2c-1.6,0.9-2.1,3-1.2,4.6L51.3,28.1z"
             data-part-id="logo__item--logo_0__2"
             id="path3440" />
          <path
             fill-rule="evenodd"
             clip-rule="evenodd"
             fill="#F89E37"
             d="M39.1,39l-9.3-5.4c-1.6-0.9-3.6-0.4-4.5,1.2    c-0.9,1.6-0.4,3.6,1.2,4.6l9.3,5.4c0.5,0.3,1.1,0.4,1.7,0.4c1.2,0,2.3-0.6,2.9-1.7C41.2,42,40.7,40,39.1,39z"
             data-part-id="logo__item--logo_0__3"
             id="path3442" />
          <path
             fill-rule="evenodd"
             clip-rule="evenodd"
             fill="#F89E37"
             d="M34,63.7c0-1.8-1.5-3.3-3.3-3.3H19.9c-1.8,0-3.3,1.5-3.3,3.3    c0,1.8,1.5,3.3,3.3,3.3h10.7C32.5,67.1,34,65.6,34,63.7z"
             data-part-id="logo__item--logo_0__4"
             id="path3444" />
          <path
             fill-rule="evenodd"
             clip-rule="evenodd"
             fill="#F89E37"
             d="M34.1,83.1l-9.3,5.4c-1.6,0.9-2.1,3-1.2,4.6    c0.6,1.1,1.7,1.7,2.9,1.7c0.6,0,1.1-0.1,1.7-0.4l9.3-5.4c1.6-0.9,2.1-3,1.2-4.6C37.7,82.7,35.7,82.2,34.1,83.1z"
             data-part-id="logo__item--logo_0__5"
             id="path3446" />
          <path
             fill-rule="evenodd"
             clip-rule="evenodd"
             fill="#F89E37"
             d="M123,91.4l-9.3-5.4c-1.6-0.9-3.6-0.4-4.6,1.2    c-0.9,1.6-0.4,3.6,1.2,4.6l9.3,5.4c0.5,0.3,1.1,0.4,1.7,0.4c1.1,0,2.3-0.6,2.9-1.7C125.2,94.4,124.6,92.4,123,91.4z"
             data-part-id="logo__item--logo_0__6"
             id="path3448" />
          <path
             fill-rule="evenodd"
             clip-rule="evenodd"
             fill="#F89E37"
             d="M129.6,63.8h-10.7c-1.8,0-3.3,1.5-3.3,3.3c0,1.8,1.5,3.3,3.3,3.3    h10.7c1.8,0,3.3-1.5,3.3-3.3C132.9,65.3,131.4,63.8,129.6,63.8z"
             data-part-id="logo__item--logo_0__7"
             id="path3450" />
          <path
             fill-rule="evenodd"
             clip-rule="evenodd"
             fill="#F89E37"
             d="M113.8,48.2c0.6,0,1.1-0.1,1.7-0.4l9.3-5.4    c1.6-0.9,2.1-3,1.2-4.6c-0.9-1.6-3-2.1-4.6-1.2l-9.3,5.4c-1.6,0.9-2.1,3-1.2,4.6C111.5,47.6,112.6,48.2,113.8,48.2z"
             data-part-id="logo__item--logo_0__8"
             id="path3452" />
          <path
             fill-rule="evenodd"
             clip-rule="evenodd"
             fill="#F89E37"
             d="M96.6,31c0.5,0.3,1.1,0.4,1.7,0.4c1.2,0,2.3-0.6,2.9-1.7l5.4-9.3    c0.9-1.6,0.4-3.6-1.2-4.6c-1.6-0.9-3.6-0.4-4.6,1.2l-5.4,9.3C94.5,28,95,30.1,96.6,31z"
             data-part-id="logo__item--logo_0__9"
             id="path3454" />
          <path
             fill-rule="evenodd"
             clip-rule="evenodd"
             fill="#F89E37"
             d="M111.9,69.4c0.1-1.1,0.3-2.3,0.3-3.4c0-19.8-16.1-35.9-35.9-35.9    c-19.8,0-35.9,16.1-35.9,35.9c0,1.2,0.2,2.3,0.3,3.4c-0.3,0.4,0.5,14.3,14,31.7c4,5.3,2.3,15.8,2.3,15.8h38.4    c0,0-1.7-10.5,2.3-15.8C111.4,83.7,112.3,69.8,111.9,69.4z M93,97.3c-2.8,3.8-3.8,9-3.9,13.4h-3.9c0-2.5,0.1-5.1,0.4-7.6    c0.1-0.2,0.9-0.7,1.4-1c1.7-1.1,4.2-2.7,4.4-6.1c0.1-1.2,0.1-2.1,0.1-2.9c0-0.2,0-0.4,0-0.6c2.2-0.8,6.4-2.9,6.5-7.1    c0.1-2,0-2.7,0-3.6l0-1.3c2.6-0.6,4.5-2.8,4.5-5.4c0-3-2.6-5.5-5.9-5.5c-3.2,0-5.8,2.5-5.8,5.5c0,2.7,2,4.9,4.7,5.4l0,1.4    c0,0.9,0,1.5,0,3.5c-0.1,2.4-2.4,3.9-4.1,4.6l0-3.3c0-4-3-5.3-4.6-5.9c-0.3-0.1-0.6-0.2-0.8-0.3c-0.5-1.1-0.6-2-0.6-3    c0-0.5,0-1,0-1.5l0-0.2c0.6-0.6,1.1-1.5,1.1-2.4c0-1.9-1.6-3.4-3.6-3.4c-2,0-3.6,1.5-3.6,3.4c0,1.4,0.9,2.6,2.1,3.1    c-0.1,1.9,0,3.7,1.1,5.9c0.6,1.1,1.7,1.6,2.7,2c1.5,0.6,2.2,1,2.2,2.4l0.1,4.3c0,1.7,0.1,2.9,0,4.9c-0.1,1.4-1.1,2.1-2.6,3.1    c-1.2,0.8-2.6,1.7-3.1,3.2c0-3.6,0-7-0.3-9c-0.2-1.8-1.9-2.8-3.3-3.5c-1.7-0.9-2.5-1.5-2.5-2.5c-0.1-1.7-0.1-2.7-0.1-4.2l0-3.1    c0.1-2.6,0.1-5.2,0.2-7.9c0.1-2.1,1.1-2.3,2.9-2.6c1.7-0.4,4.3-0.9,4.4-4.3l0.1-2.1c0-0.6,0-0.6,0-1.7L83,60.1    c1.3-0.5,2.2-1.7,2.2-3.2c0-1.9-1.6-3.4-3.6-3.4c-2,0-3.6,1.5-3.6,3.4c0,1.6,1.1,2.9,2.6,3.3l0.1,1.1c0.1,1,0.1,1,0,1.4L80.6,65    c0,1.5-0.6,1.7-2.5,2.1c-1.6,0.3-3.8,0.8-4.6,3.3c-0.7-2.8-3-3.2-4.6-3.6c-1.8-0.4-2.4-0.6-2.5-2.1c-0.1-3.2-0.1-6.6,0-10.1    c3-0.3,5.3-2.6,5.3-5.5c0-3-2.6-5.5-5.8-5.5c-3.2,0-5.9,2.5-5.9,5.5c0,2.4,1.7,4.5,4,5.2c-0.1,3.6-0.1,7.1,0,10.4    c0.1,3.5,2.7,4,4.4,4.3c1.8,0.4,2.8,0.5,2.9,2.6c0.1,2.5,0.1,4.9,0.2,7.4h0l-0.1,3.7c0,0.7,0,1.3,0,1.9c0,0.8,0,1.6,0.1,2.6    c0.2,3.1,2.8,4.6,4.5,5.5c0.4,0.2,1.1,0.6,1.3,0.8c0.2,1.7,0.2,4.3,0.2,7.2c0,3.3,0,6.6-0.1,9.8h-9.6h-0.7c-0.1-3.1,0-6.2,0.2-9    c0.1-1.1,0.5-1.2,1.6-1.4c1.1-0.2,2.5-0.6,2.5-2.9l0-1.1c0-1,0-1.3,0-2.5c0.9-0.3,1.5-1.1,1.5-2c0-1.2-1-2.1-2.3-2.1    c-1.2,0-2.2,1-2.2,2.1c0,0.7,0.4,1.3,0.9,1.7c0.1,1.4,0.1,1.6,0,2.7c0,1.2,0.1,2-1,2.2c-1,0.2-3,0.5-3.5,2.4c0-1.7,0-3.4-0.2-5    c-0.1-1.1-1.2-1.7-2-2.2c-1-0.6-1.5-0.9-1.6-1.5c-0.1-1.1-0.1-1.7,0-2.6l0-1.2c1.6-0.5,2.8-1.9,2.8-3.6c0-2.1-1.8-3.8-4-3.8    c-2.2,0-4,1.7-4,3.8c0,1.7,1.1,3.1,2.7,3.6l0,1.2c0,0.4,0,0.8,0,1.2c0,0.5,0,1,0.1,1.6c0.1,2,1.7,2.8,2.8,3.4    c0.3,0.2,0.7,0.4,0.8,0.5c0.1,1,0.2,2.1,0.2,3.2c0,0.9,0,1.7,0,2.6c0,0.2,0,0.3,0,0.5c-0.6-1.8-1.4-3.6-2.6-5.1    c-9.4-12.1-11.9-21.9-12.6-25.8l0.1-0.1l-0.4-4.2c-0.1-0.5-0.1-1-0.1-1.4c0-16.4,13.3-29.7,29.7-29.7c16.4,0,29.7,13.3,29.7,29.7    c0,0.5-0.1,1-0.2,1.4l-0.4,4.2l0.1,0.1C104.9,75.5,102.4,85.2,93,97.3z"
             data-part-id="logo__item--logo_0__10"
             id="path3456" />
        </g>
      </g>
    </g>
  </g>
</svg>
